<?xml version="1.0" encoding="UTF-8" standalone="no"?>
<!-- Created with Inkscape (http://www.inkscape.org/) -->
<svg
   xmlns:dc="http://purl.org/dc/elements/1.1/"
   xmlns:cc="http://creativecommons.org/ns#"
   xmlns:rdf="http://www.w3.org/1999/02/22-rdf-syntax-ns#"
   xmlns:svg="http://www.w3.org/2000/svg"
   xmlns="http://www.w3.org/2000/svg"
   xmlns:xlink="http://www.w3.org/1999/xlink"
   xmlns:sodipodi="http://sodipodi.sourceforge.net/DTD/sodipodi-0.dtd"
   xmlns:inkscape="http://www.inkscape.org/namespaces/inkscape"
   width="57"
   height="57"
   id="svg2"
   sodipodi:version="0.32"
   inkscape:version="0.46"
   version="1.0"
   sodipodi:docname="ddd_s.svg"
   inkscape:output_extension="org.inkscape.output.svg.inkscape"
   inkscape:export-filename="/Users/mootoh/ddd_s.png"
   inkscape:export-xdpi="90"
   inkscape:export-ydpi="90">
  <defs
     id="defs4">
    <linearGradient
       id="linearGradient4652">
      <stop
         style="stop-color:#e2e4e6;stop-opacity:1;"
         offset="0"
         id="stop4654" />
      <stop
         style="stop-color:#ffffff;stop-opacity:0;"
         offset="1"
         id="stop4656" />
    </linearGradient>
    <inkscape:perspective
       sodipodi:type="inkscape:persp3d"
       inkscape:vp_x="0 : 526.18109 : 1"
       inkscape:vp_y="0 : 1000 : 0"
       inkscape:vp_z="744.09448 : 526.18109 : 1"
       inkscape:persp3d-origin="372.04724 : 350.78739 : 1"
       id="perspective10" />
    <clipPath
       clipPathUnits="userSpaceOnUse"
       id="clipPath4707">
      <path
         sodipodi:type="arc"
         style="fill:#000000;fill-opacity:1;fill-rule:nonzero;stroke:none;stroke-width:32;stroke-miterlimit:4;stroke-dasharray:none;stroke-opacity:1;display:inline"
         id="path4709"
         sodipodi:cx="240"
         sodipodi:cy="160"
         sodipodi:rx="250"
         sodipodi:ry="240"
         d="M 490,160 A 250,240 0 1 1 -10,160 A 250,240 0 1 1 490,160 z"
         transform="matrix(0.8987315,0,0,0.7428847,121.32875,130.11503)" />
    </clipPath>
    <radialGradient
       inkscape:collect="always"
       xlink:href="#linearGradient4652"
       id="radialGradient4721"
       cx="240"
       cy="160"
       fx="240"
       fy="160"
       r="250"
       gradientTransform="matrix(1,0,0,0.96,0,6.4)"
       gradientUnits="userSpaceOnUse"
       spreadMethod="pad" />
  </defs>
  <sodipodi:namedview
     id="base"
     pagecolor="#ffffff"
     bordercolor="#666666"
     borderopacity="1.0"
     gridtolerance="10000"
     guidetolerance="10"
     objecttolerance="10"
     inkscape:pageopacity="1"
     inkscape:pageshadow="2"
     inkscape:zoom="3"
     inkscape:cx="66.690497"
     inkscape:cy="-40"
     inkscape:document-units="px"
     inkscape:current-layer="layer1"
     showgrid="true"
     inkscape:window-width="1280"
     inkscape:window-height="976"
     inkscape:window-x="1280"
     inkscape:window-y="0">
    <inkscape:grid
       type="xygrid"
       id="grid2650"
       visible="true"
       enabled="true" />
  </sodipodi:namedview>
  <metadata
     id="metadata7">
    <rdf:RDF>
      <cc:Work
         rdf:about="">
        <dc:format>image/svg+xml</dc:format>
        <dc:type
           rdf:resource="http://purl.org/dc/dcmitype/StillImage" />
      </cc:Work>
    </rdf:RDF>
  </metadata>
  <g
     inkscape:label="loope"
     inkscape:groupmode="layer"
     id="layer1"
     style="display:inline">
    <path
       style="fill:#003366;fill-opacity:1;fill-rule:evenodd;stroke:#003366;stroke-width:0.24408013;stroke-linecap:butt;stroke-linejoin:miter;stroke-miterlimit:4;stroke-dasharray:none;stroke-opacity:1"
       d="M 34.853324,44.032285 L 43.643718,54.800658 L 50.036732,49.002297 L 42.045462,39.062265 L 34.853324,44.032285 z"
       id="path3172"
       sodipodi:nodetypes="ccccc" />
    <path
       sodipodi:type="arc"
       style="fill:none;fill-opacity:1;stroke:#003366;stroke-width:32;stroke-miterlimit:4;stroke-dasharray:none;stroke-opacity:1"
       id="path2396"
       sodipodi:cx="240"
       sodipodi:cy="160"
       sodipodi:rx="250"
       sodipodi:ry="240"
       d="M 490,160 A 250,240 0 1 1 -10,160 A 250,240 0 1 1 490,160 z"
       transform="matrix(7.8492654e-2,0,0,8.4978072e-2,7.3093087,12.689897)" />
    <g
       id="g4733"
       transform="matrix(8.9314122e-2,0,0,9.2578743e-2,-0.8253176,0.1791785)">
      <path
         style="opacity:0.09090899;fill:none;fill-opacity:1;stroke:#003366;stroke-width:28.74102211;stroke-miterlimit:4;stroke-opacity:1"
         d="M 299.17125,62.191487 C 249.92669,62.652421 201.04116,80.386268 162.53941,112.38918 C 126.52067,142.05001 99.595534,184.26623 88.671926,231.07277 C 76.517257,281.61376 83.200211,336.74001 106.94096,382.45557 C 131.94371,431.35854 175.04105,469.18909 224.96558,487.86835 C 282.37919,509.62965 348.43444,505.84276 402.98214,477.15524 C 450.38615,452.59307 488.90148,409.73024 507.80827,357.93837 C 527.13376,305.99245 525.55949,245.959 503.48487,195.20617 C 482.12223,145.15762 442.11184,104.66115 394.23329,82.543558 C 364.46408,68.589897 331.7986,61.762219 299.17125,62.191487 z"
         id="path4735" />
      <path
         style="opacity:0.09090899;fill:none;fill-opacity:1;stroke:#003366;stroke-width:28.74102211;stroke-miterlimit:4;stroke-opacity:1"
         d="M 299.17125,62.105434 C 257.04834,62.531626 215.13608,75.465244 179.79319,99.374619 C 140.14853,125.99605 109.03518,166.21932 93.719763,212.88067 C 77.127764,262.62976 79.268458,318.93695 99.712155,367.12231 C 118.56355,412.33033 152.57291,449.9738 194.06517,473.48531 C 230.98672,494.53183 273.69389,504.1815 315.7167,501.48694 C 359.97047,498.87009 403.33074,482.3015 438.51551,454.10693 C 471.41161,427.93486 496.99918,391.76185 510.39589,350.77259 C 526.86194,301.10866 524.68418,244.95115 504.28787,196.87769 C 485.43647,151.66966 451.42711,114.02618 409.93485,90.514684 C 376.17063,71.297416 337.66873,61.540458 299.17125,62.105434 z"
         id="path4740" />
      <path
         style="opacity:0.09090899;fill:none;fill-opacity:1;stroke:#003366;stroke-width:28.74102211;stroke-miterlimit:4;stroke-opacity:1"
         d="M 299.17125,62.01938 C 266.17724,62.384646 233.27023,70.274741 203.5542,85.35971 C 179.01433,97.673624 156.68436,114.83322 138.13418,135.70746 C 115.9685,160.58953 99.326434,190.87611 90.366933,223.64104 C 78.738443,265.98273 80.10401,312.11682 94.456717,353.57144 C 107.23188,390.99331 130.22373,424.26692 159.63511,449.39852 C 174.61426,462.21629 191.35101,473.05172 209.04917,481.33049 C 247.52628,499.52816 290.86081,505.74308 332.67695,499.85797 C 362.5353,495.79063 391.71251,485.11925 417.56519,469.0396 C 439.96833,455.1104 459.99485,436.96986 476.22964,415.72664 C 497.2295,388.3558 511.78935,355.7065 517.9813,321.18694 C 524.71458,283.39471 521.6063,243.64389 508.56298,207.6212 C 495.28728,170.4024 471.86454,137.48305 442.16923,112.72413 C 428.44055,101.34985 413.30112,91.477652 397.34965,83.824335 C 366.73146,68.879594 332.91995,61.55161 299.17125,62.01938 z"
         id="path4745" />
      <path
         style="opacity:0.09090899;fill:none;fill-opacity:1;stroke:#003366;stroke-width:28.74102211;stroke-miterlimit:4;stroke-opacity:1"
         d="M 299.17125,61.904643 C 266.16919,62.283195 233.22449,70.201887 203.52673,85.273657 C 190.28981,91.920278 177.77723,99.89222 166.07436,109.19424 C 145.02218,125.80918 126.94848,146.48866 113.03624,169.91006 C 103.5032,186.13052 95.848493,203.77419 90.705261,222.11507 C 79.517867,261.57892 79.721541,304.46749 91.254223,343.8212 C 96.129172,360.51863 103.00438,376.55682 111.5668,391.5457 C 120.83662,407.69667 132.25742,422.77847 145.18562,435.97733 C 157.28215,448.41513 170.84168,459.29448 185.34614,468.48045 C 203.85343,480.07137 224.07764,489.02362 245.05689,494.63023 C 272.28964,501.9595 300.82841,503.89447 328.75485,500.49296 C 355.4162,497.27124 381.50857,489.01556 405.37266,476.18694 C 414.49768,471.29394 423.24418,465.83331 431.62275,459.6158 C 452.96679,443.96591 471.56555,424.30537 486.19486,401.74943 C 498.46983,382.8484 507.89524,361.80707 513.88871,339.77111 C 524.41297,301.06565 524.0849,259.21241 512.89579,220.70679 C 508.0193,203.81788 501.08377,187.60131 492.43322,172.4543 C 483.1634,156.30332 471.74261,141.22152 458.81441,128.02267 C 446.71787,115.58486 433.15834,104.70551 418.65388,95.519538 C 400.14659,83.928619 379.92238,74.97637 358.94313,69.369763 C 339.45574,64.124133 319.29224,61.638732 299.17125,61.904643 z"
         id="path4750" />
      <path
         style="opacity:0.09090899;fill:none;fill-opacity:1;stroke:#003366;stroke-width:28.74102211;stroke-miterlimit:4;stroke-opacity:1"
         d="M 299.17125,61.81859 C 291.82388,61.927404 284.47836,62.339417 277.17363,63.183884 C 268.2216,64.231251 259.31517,65.738639 250.5425,67.88739 C 244.85099,69.259012 239.20751,70.85706 233.6354,72.686948 C 224.31165,75.737146 215.19051,79.460435 206.33388,83.767455 C 200.4982,86.602575 194.78265,89.687302 189.21892,93.062455 C 183.23508,96.630286 177.44518,100.54332 171.81655,104.69255 C 168.57426,107.05231 165.45026,109.58464 162.3197,112.10233 C 161.36766,112.84436 160.31524,113.77888 159.34218,114.61739 C 153.97949,119.19143 148.82509,124.03344 143.94112,129.16051 C 138.14754,135.15298 132.71938,141.52733 127.6056,148.15861 C 126.90228,149.18284 126.0012,150.30044 125.23573,151.37204 C 120.05439,158.39649 115.28987,165.75476 110.95513,173.37832 C 108.56605,177.57202 106.34454,181.85333 104.21202,186.19508 C 102.06721,190.69173 100.02777,195.24339 98.184275,199.88466 C 95.491277,206.57388 93.149459,213.41867 91.113407,220.35578 C 87.954728,231.20427 85.654623,242.32137 84.185332,253.55452 C 83.108144,261.98348 82.497498,270.47782 82.403816,278.98186 C 82.299921,287.21699 82.609348,295.46089 83.422245,303.65421 C 84.626398,316.02592 86.892832,328.28368 90.153581,340.24347 C 92.323119,348.16403 94.940751,355.9519 97.959195,363.56257 C 99.727626,367.99878 101.63054,372.37436 103.67937,376.67698 C 105.90469,381.327 108.2746,385.89062 110.81111,390.36244 C 114.16656,396.29159 117.78871,402.05785 121.65947,407.63423 C 123.59905,410.41055 125.59012,413.14711 127.63306,415.84138 C 128.33412,416.82646 129.21808,417.91718 130.01362,418.92255 C 135.09582,425.29245 140.48064,431.40099 146.19504,437.15844 C 151.30057,442.39196 156.75563,447.23622 162.3197,451.92634 C 163.28803,452.63988 164.34574,453.56012 165.35905,454.33893 C 168.99321,457.2814 172.7617,460.03273 176.5668,462.72697 C 183.37397,467.51019 190.47179,471.84344 197.728,475.82682 C 208.07866,481.3991 218.82032,486.18623 229.86539,490.04286 C 234.42849,491.63054 239.03901,493.06197 243.68956,494.34308 C 252.55205,496.78461 261.55354,498.6867 270.63808,499.96261 C 279.00522,501.18826 287.43925,501.89844 295.88559,502.11014 C 304.69671,502.3604 313.5221,502.07042 322.30366,501.28625 C 332.45998,500.3027 342.57106,498.72362 352.51474,496.33593 C 358.49895,494.92788 364.4275,493.25625 370.28098,491.34123 C 379.60556,488.29362 388.72813,484.57465 397.58664,480.27167 C 403.42235,477.4369 409.141,474.35797 414.70462,470.98277 C 420.71584,467.4033 426.53085,463.47418 432.18347,459.30744 C 435.42577,456.94768 438.54976,454.41535 441.68033,451.89766 C 442.63236,451.15564 443.68478,450.22111 444.65784,449.3826 C 450.02053,444.80856 455.17494,439.96655 460.05889,434.83948 C 465.85248,428.84701 471.28064,422.47267 476.39443,415.84138 C 477.09774,414.81715 477.99882,413.69955 478.76429,412.62795 C 483.94563,405.6035 488.71015,398.24523 493.04489,390.62166 C 495.43397,386.42798 497.65549,382.14667 499.788,377.80492 C 501.93282,373.30826 503.97226,368.7566 505.81574,364.11533 C 508.50875,357.42611 510.85056,350.58132 512.88662,343.64421 C 516.04529,332.79572 518.3454,321.67863 519.81469,310.44547 C 520.89188,302.01651 521.50253,293.52217 521.5962,285.01814 C 521.7001,276.783 521.39068,268.5391 520.57778,260.34578 C 519.37362,247.97407 517.10719,235.71631 513.84644,223.75652 C 511.67691,215.83596 509.05927,208.04809 506.04083,200.43743 C 504.2724,196.00121 502.36949,191.62563 500.32065,187.32301 C 498.09534,182.67299 495.72542,178.10938 493.18891,173.63755 C 489.83346,167.7084 486.21131,161.94214 482.34056,156.36577 C 480.40097,153.58944 478.4099,150.85288 476.36696,148.15861 C 475.66591,147.17354 474.78194,146.08281 473.9864,145.07744 C 468.9042,138.70754 463.51938,132.59899 457.80498,126.84155 C 452.69945,121.60803 447.2444,116.76377 441.68033,112.07365 C 440.71199,111.3601 439.65428,110.43988 438.64097,109.66107 C 435.00682,106.71859 431.23832,103.96727 427.43322,101.27302 C 420.62605,96.489808 413.52824,92.156549 406.27202,88.173164 C 395.92137,82.60089 385.1797,77.81376 374.13463,73.957134 C 369.57153,72.369454 364.96101,70.938024 360.31046,69.65691 C 351.44797,67.215388 342.44648,65.313298 333.36194,64.03738 C 324.9948,62.811732 316.56077,62.101553 308.11443,61.889858 C 305.134,61.812265 302.15247,61.765416 299.17125,61.81859 z"
         id="path4755" />
      <path
         transform="matrix(0.878838,0,0,0.9179006,91.078891,135.1359)"
         style="opacity:0.09090899;fill:none;fill-opacity:1;stroke:#003366;stroke-width:32;stroke-miterlimit:4;stroke-opacity:1"
         d="M 490,160 C 490,292.48 378,400 240,400 C 102,400 -10,292.48 -10,160 C -10,27.52 102,-80 240,-80 C 378,-80 490,27.52 490,160 z"
         id="path4760" />
      <path
         style="opacity:0.09090899;fill:none;fill-opacity:1;stroke:#003366;stroke-width:28.74102211;stroke-miterlimit:4;stroke-opacity:1"
         d="M 299.17125,61.646483 C 291.82388,61.755298 284.47836,62.167312 277.17363,63.011778 C 268.4379,64.042441 259.73915,65.471055 251.17323,67.552862 C 245.27639,68.948105 239.43366,70.598875 233.66412,72.486661 C 224.33953,75.534264 215.21696,79.253239 206.35845,83.556219 C 199.03075,87.118497 191.88108,91.057935 184.9713,95.438306 C 179.63873,98.773735 174.49067,102.42269 169.4426,106.20693 C 165.59725,109.15729 161.82946,112.17518 158.20014,115.40104 C 153.17182,119.71174 148.36173,124.29873 143.76866,129.11019 C 137.99905,135.08443 132.59093,141.43619 127.49574,148.04388 C 124.05312,152.50714 120.77734,157.17134 117.68295,161.92571 C 114.13722,167.39513 110.8177,173.02319 107.74911,178.79899 C 105.77912,182.65522 103.8,186.52372 102.01853,190.48642 C 98.932157,197.23595 96.194459,204.16024 93.816589,211.21596 C 89.638469,223.47781 86.586226,236.15635 84.657902,249.0128 C 83.433872,257.23498 82.639944,265.53084 82.362254,273.84773 C 82.02606,283.72757 82.272223,293.63507 83.241225,303.47141 C 84.171274,313.14983 85.747243,322.76023 87.944751,332.21267 C 90.407254,342.84265 93.703406,353.25625 97.691229,363.36653 C 99.483626,367.85847 101.39857,372.29562 103.4764,376.65168 C 105.13758,380.1189 106.87567,383.54743 108.67864,386.93164 C 111.51832,392.17817 114.58189,397.28937 117.81481,402.28086 C 122.47316,409.42684 127.51472,416.2727 132.95465,422.77855 C 137.19298,427.90925 141.6705,432.8218 146.33562,437.53085 C 151.37061,442.66449 156.73638,447.42825 162.20984,452.04108 C 165.09248,454.43496 168.0772,456.77298 171.08193,459.02779 C 176.23721,462.81506 181.48749,466.46673 186.93276,469.78587 C 194.4097,474.41862 202.17117,478.52946 210.11122,482.22889 C 218.43309,486.07242 226.96992,489.40959 235.67789,492.16836 C 244.13676,494.82914 252.73772,497.00072 261.43161,498.64069 C 270.90592,500.35108 280.46963,501.57634 290.07705,502.05669 C 300.75732,502.61701 311.47364,502.42122 322.12876,501.47645 C 330.23346,500.69122 338.3101,499.54045 346.29894,497.90743 C 353.87319,496.32978 361.37543,494.37652 368.76375,492.02606 C 378.13134,489.03745 387.30158,485.38101 396.21217,481.13495 C 402.8184,477.96617 409.29519,474.51689 415.57921,470.70258 C 421.23786,467.28098 426.73591,463.57576 432.07655,459.63629 C 435.3977,457.23394 438.58934,454.64246 441.79018,452.06977 C 444.77036,449.46962 447.84256,446.91324 450.7476,444.19383 C 455.67213,439.69825 460.33807,434.89914 464.84672,429.953 C 470.13503,424.05518 475.18003,417.91968 479.84781,411.49018 C 484.6563,404.86846 489.09831,397.9581 493.16557,390.8158 C 495.07591,387.45674 496.87873,384.04509 498.59813,380.57755 C 500.74067,376.31779 502.74378,371.97934 504.58671,367.56901 C 507.8527,359.82879 510.65056,351.87469 513.0264,343.78958 C 516.16438,333.01134 518.47344,321.97072 519.92875,310.80879 C 521.03966,302.29209 521.66006,293.70533 521.75921,285.10991 C 521.86806,276.84426 521.55801,268.56953 520.74256,260.34578 C 519.67135,249.34044 517.77506,238.42268 515.06902,227.72717 C 512.7373,218.47214 509.76625,209.39528 506.2744,200.54899 C 504.49343,196.0852 502.58774,191.67728 500.52362,187.34832 C 498.86244,183.88109 497.12435,180.45256 495.32139,177.06835 C 492.4817,171.82182 489.41814,166.71062 486.18521,161.71913 C 481.52686,154.57315 476.4853,147.7273 471.04538,141.22144 C 466.80704,136.09075 462.32952,131.17819 457.6644,126.46915 C 452.62942,121.3355 447.26364,116.57175 441.79018,111.95891 C 438.90754,109.56504 435.92282,107.22702 432.91809,104.9722 C 427.76282,101.18493 422.51253,97.533265 417.06726,94.214117 C 409.59032,89.581376 401.82885,85.470525 393.8888,81.771105 C 385.56693,77.927566 377.0301,74.590408 368.32213,71.831628 C 359.86326,69.170858 351.2623,66.999272 342.56841,65.359299 C 333.0941,63.648909 323.53039,62.423649 313.92297,61.9433 C 309.0107,61.701 304.089,61.575249 299.17125,61.646483 z"
         id="path4763" />
      <path
         style="opacity:0.09090899;fill:none;fill-opacity:1;stroke:#003366;stroke-width:28.74102211;stroke-miterlimit:4;stroke-opacity:1"
         d="M 299.17125,61.56043 C 268.81954,61.908256 238.52117,68.611195 210.72968,81.376857 C 190.56622,90.614394 171.76263,102.98211 155.08121,118.00205 C 137.97727,133.41146 123.16699,151.63827 111.50876,171.86602 C 96.465799,197.8328 86.801655,227.25117 83.473804,257.42991 C 79.804096,290.64259 83.637729,324.76763 94.872314,356.0919 C 103.73622,381.16736 117.24475,404.33693 134.14968,424.38236 C 148.72661,441.63878 165.86464,456.56838 184.72871,468.48479 C 206.87481,482.584 231.48292,492.51418 256.93072,497.82758 C 280.92899,502.8323 305.6956,503.77854 329.98551,500.68981 C 360.04223,496.8992 389.34209,486.70477 415.5302,470.83386 C 428.27172,463.06905 440.35549,453.99996 451.39831,443.7365 C 467.53244,428.73121 481.55292,411.18911 492.67487,391.82087 C 508.58485,364.23563 518.44719,332.78491 521.09288,300.66677 C 523.74945,269.08692 519.62415,236.8829 508.88328,207.21958 C 500.77566,184.52163 488.84977,163.40957 474.06613,144.76431 C 460.01689,127.08942 443.36964,111.67988 424.90001,99.194355 C 401.39203,83.231716 374.91796,72.019626 347.4136,66.246553 C 331.55069,62.905744 315.35113,61.346548 299.17125,61.56043 z"
         id="path4768" />
      <path
         style="opacity:0.09090899;fill:none;fill-opacity:1;stroke:#003366;stroke-width:28.74102211;stroke-miterlimit:4;stroke-opacity:1"
         d="M 299.17125,61.445692 C 256.97932,61.890268 214.90427,74.856663 179.46363,98.829616 C 149.73938,118.83317 124.68454,146.42814 107.56879,178.79299 C 90.953913,210.08267 82.015276,245.8444 82.019371,281.63844 C 81.92549,315.78754 89.891816,349.97066 105.04408,380.22918 C 122.56567,415.64899 149.60317,445.6706 181.91151,466.79476 C 214.14565,487.97364 251.69641,500.17242 289.69865,502.23613 C 329.79571,504.51597 370.42636,495.64164 406.11386,476.32716 C 433.21078,461.68165 457.44664,441.16516 476.51279,416.23731 C 499.60605,386.22665 514.99246,349.69029 520.00475,311.47328 C 525.17952,273.5384 520.16926,234.14233 505.78569,198.85804 C 492.18219,165.3301 470.30217,135.60614 443.11317,112.84284 C 412.29987,86.898729 374.67526,69.904084 335.47825,63.998604 C 323.52245,62.069694 311.30032,61.314839 299.17125,61.445692 z"
         id="path4773" />
      <path
         style="opacity:0.09090899;fill:none;fill-opacity:1;stroke:#003366;stroke-width:28.74102211;stroke-miterlimit:4;stroke-opacity:1"
         d="M 299.17125,61.359639 C 248.07844,61.81802 197.24383,80.896117 158.03536,115.17156 C 122.77513,145.59097 97.040319,188.11286 86.986802,234.84285 C 77.354647,278.72353 81.571496,325.83399 98.914097,367.07188 C 118.94995,415.31146 156.23534,455.10846 201.36461,478.23986 C 251.67805,504.46937 311.55976,509.70205 365.51268,493.31599 C 413.96018,478.8051 457.4732,446.6588 485.92433,403.13419 C 510.72203,365.64559 523.69861,319.72125 521.92027,274.11853 C 520.48788,228.52986 504.23804,183.82233 477.01575,148.26056 C 445.84363,107.17698 400.6941,78.206716 351.68182,67.010465 C 334.52298,62.964333 316.78979,61.144784 299.17125,61.359639 z"
         id="path4778" />
      <path
         style="opacity:0.09090899;fill:none;fill-opacity:1;stroke:#003366;stroke-width:28.74102211;stroke-miterlimit:4;stroke-opacity:1"
         d="M 299.17125,61.273586 C 247.14859,61.697819 195.48565,81.540443 155.94812,116.83526 C 120.83093,147.98018 95.456841,191.20748 86.14478,238.43699 C 76.209441,287.52446 83.635692,340.15578 106.78746,384.07473 C 132.35027,433.41949 176.484,471.41372 227.16761,489.66103 C 285.19962,510.83278 351.57036,506.21723 406.11783,476.51202 C 455.25758,450.23688 494.58844,403.88391 511.8275,348.90529 C 528.60128,296.71726 524.77545,237.63828 501.36025,188.33366 C 477.29529,136.52777 433.03658,95.958716 381.45344,76.080477 C 355.224,65.869716 327.183,60.8836 299.17125,61.273586 z"
         id="path4783" />
    </g>
    <g
       id="g4788"
       transform="matrix(8.9314122e-2,0,0,9.2578743e-2,-0.8253176,0.1791785)">
      <path
         style="opacity:0.09090899;fill:#003366;fill-opacity:1;fill-rule:evenodd;stroke:#003366;stroke-width:2.68421054;stroke-linecap:butt;stroke-linejoin:miter;stroke-miterlimit:4;stroke-dasharray:none;stroke-opacity:1"
         d="M 400.1875,473.78125 C 432.77083,512.28125 465.35417,550.78125 497.9375,589.28125 C 521.55208,568.625 545.16667,547.96875 568.78125,527.3125 C 539.15625,491.76042 509.53125,456.20833 479.90625,420.65625 C 453.33333,438.36458 426.76042,456.07292 400.1875,473.78125 z"
         id="path4790" />
      <path
         style="opacity:0.09090899;fill:#003366;fill-opacity:1;fill-rule:evenodd;stroke:#003366;stroke-width:2.68421054;stroke-linecap:butt;stroke-linejoin:miter;stroke-miterlimit:4;stroke-dasharray:none;stroke-opacity:1"
         d="M 400.0625,473.78125 C 432.6875,512.33333 465.3125,550.88542 497.9375,589.4375 C 521.59375,568.73958 545.25,548.04167 568.90625,527.34375 C 539.25,491.73958 509.59375,456.13542 479.9375,420.53125 C 453.3125,438.28125 426.6875,456.03125 400.0625,473.78125 z"
         id="path4794" />
      <path
         style="opacity:0.09090899;fill:#003366;fill-opacity:1;fill-rule:evenodd;stroke:#003366;stroke-width:2.68421054;stroke-linecap:butt;stroke-linejoin:miter;stroke-miterlimit:4;stroke-dasharray:none;stroke-opacity:1"
         d="M 399.90625,473.75 C 432.58333,512.36458 465.26042,550.97917 497.9375,589.59375 C 521.64583,568.84375 545.35417,548.09375 569.0625,527.34375 C 539.35417,491.6875 509.64583,456.03125 479.9375,420.375 C 453.26042,438.16667 426.58333,455.95833 399.90625,473.75 z"
         id="path4798" />
      <path
         style="opacity:0.09090899;fill:#003366;fill-opacity:1;fill-rule:evenodd;stroke:#003366;stroke-width:2.68421054;stroke-linecap:butt;stroke-linejoin:miter;stroke-miterlimit:4;stroke-dasharray:none;stroke-opacity:1"
         d="M 399.78125,473.71875 C 432.5,512.38542 465.21875,551.05208 497.9375,589.71875 C 521.6875,568.92708 545.4375,548.13542 569.1875,527.34375 C 539.44792,491.65625 509.70833,455.96875 479.96875,420.28125 C 453.23958,438.09375 426.51042,455.90625 399.78125,473.71875 z"
         id="path4802" />
      <path
         style="opacity:0.09090899;fill:#003366;fill-opacity:1;fill-rule:evenodd;stroke:#003366;stroke-width:2.68421054;stroke-linecap:butt;stroke-linejoin:miter;stroke-miterlimit:4;stroke-dasharray:none;stroke-opacity:1"
         d="M 399.625,473.71875 C 432.38542,512.4375 465.14583,551.15625 497.90625,589.875 C 521.71875,569.04167 545.53125,548.20833 569.34375,527.375 C 539.5625,491.625 509.78125,455.875 480,420.125 C 453.20833,437.98958 426.41667,455.85417 399.625,473.71875 z"
         id="path4806" />
      <path
         sodipodi:nodetypes="ccccc"
         id="path4810"
         d="M 399.47368,473.68421 L 497.89473,590 L 569.47368,527.36842 L 480,420 L 399.47368,473.68421 z"
         style="opacity:0.09090899;fill:#003366;fill-opacity:1;fill-rule:evenodd;stroke:#003366;stroke-width:2.68421054;stroke-linecap:butt;stroke-linejoin:miter;stroke-miterlimit:4;stroke-dasharray:none;stroke-opacity:1" />
      <path
         style="opacity:0.09090899;fill:#003366;fill-opacity:1;fill-rule:evenodd;stroke:#003366;stroke-width:2.68421054;stroke-linecap:butt;stroke-linejoin:miter;stroke-miterlimit:4;stroke-dasharray:none;stroke-opacity:1"
         d="M 479.9375,419.90625 C 453.0625,437.82292 426.1875,455.73958 399.3125,473.65625 C 426.06194,505.22333 452.77628,536.8227 479.51222,568.4022 C 485.64013,575.65613 491.79549,582.88941 497.90625,590.15625 C 502.07158,586.41993 506.33361,582.76842 510.5361,579.06469 C 530.22065,561.83337 549.9159,544.61348 569.59375,527.375 C 539.73816,491.57331 509.90822,455.7482 480.0625,419.9375 L 480.03125,419.875 L 479.9375,419.90625 z"
         id="path4812" />
      <path
         style="opacity:0.09090899;fill:#003366;fill-opacity:1;fill-rule:evenodd;stroke:#003366;stroke-width:2.68421054;stroke-linecap:butt;stroke-linejoin:miter;stroke-miterlimit:4;stroke-dasharray:none;stroke-opacity:1"
         d="M 479.875,419.84375 C 452.96875,437.78125 426.0625,455.71875 399.15625,473.65625 C 432.08808,512.50757 464.97278,551.40337 497.875,590.28125 C 521.84656,569.33873 545.77844,548.34877 569.75,527.40625 C 539.85096,491.50453 509.93029,455.62047 480.03125,419.71875 L 479.87508,419.84369 L 479.875,419.84375 z"
         id="path4816" />
      <path
         style="opacity:0.09090899;fill:#003366;fill-opacity:1;fill-rule:evenodd;stroke:#003366;stroke-width:2.68421054;stroke-linecap:butt;stroke-linejoin:miter;stroke-miterlimit:4;stroke-dasharray:none;stroke-opacity:1"
         d="M 479.84375,419.75 C 452.90625,437.70833 425.96875,455.66667 399.03125,473.625 C 431.98267,512.55918 464.95446,551.47827 497.875,590.4375 C 521.84753,569.39778 545.87582,548.41721 569.875,527.40625 C 539.93664,491.46986 509.96935,455.55484 480.0625,419.59375 L 479.84375,419.75 z"
         id="path4820" />
    </g>
  </g>
  <g
     inkscape:groupmode="layer"
     id="layer3"
     inkscape:label="fill"
     style="display:inline">
    <path
       sodipodi:type="arc"
       style="fill:url(#radialGradient4721);fill-opacity:1;fill-rule:nonzero;stroke:none;stroke-width:32;stroke-miterlimit:4;stroke-dasharray:none;stroke-opacity:1;display:inline"
       id="path3214"
       sodipodi:cx="240"
       sodipodi:cy="160"
       sodipodi:rx="250"
       sodipodi:ry="240"
       d="M 490,160 A 250,240 0 1 1 -10,160 A 250,240 0 1 1 490,160 z"
       transform="matrix(7.8492654e-2,0,0,8.4978072e-2,13.144144,3.7336088)" />
  </g>
  <g
     inkscape:groupmode="layer"
     id="layer2"
     inkscape:label="text"
     style="display:inline">
    <text
       sodipodi:linespacing="125%"
       transform="matrix(7.9502395e-2,0,0,0.1040043,-0.8253176,0.1791785)"
       id="text3203"
       y="242.57678"
       x="297.19522"
       style="font-size:160.07940674px;font-style:normal;font-variant:normal;font-weight:normal;font-stretch:normal;text-align:start;line-height:125%;writing-mode:lr-tb;text-anchor:start;fill:#000000;fill-opacity:1;stroke:none;stroke-width:1px;stroke-linecap:butt;stroke-linejoin:miter;stroke-opacity:1;display:inline;font-family:Eurostile;-inkscape-font-specification:Eurostile"
       xml:space="preserve"
       mask="none"
       clip-path="url(#clipPath4707)"><tspan
         y="242.57678"
         x="297.19522"
         id="tspan3205"
         sodipodi:role="line">08036</tspan></text>
  </g>
</svg>
